<svg width="16" height="14" viewBox="0 0 16 14" fill="none" xmlns="http://www.w3.org/2000/svg">
<path d="M6.03208 13.998C5.5389 13.998 5.07179 13.795 4.77248 13.445L0.721562 8.72396C0.596319 8.57816 0.504884 8.41202 0.452484 8.23504C0.400083 8.05805 0.387745 7.87369 0.416175 7.6925C0.444604 7.51131 0.513244 7.33683 0.618169 7.17905C0.723095 7.02127 0.862249 6.88328 1.02768 6.77296C1.19304 6.66218 1.38157 6.58128 1.58246 6.53489C1.78334 6.4885 1.99263 6.47753 2.19833 6.50261C2.40402 6.52769 2.60209 6.58834 2.78117 6.68106C2.96024 6.77378 3.11682 6.89677 3.24191 7.04296L5.90737 10.147L12.609 0.654962C12.8313 0.341561 13.1854 0.118708 13.5937 0.0352852C14.002 -0.0481378 14.4311 0.0146808 14.787 0.209962C15.5273 0.615962 15.7552 1.47596 15.2926 2.12996L7.37445 13.34C7.23928 13.5322 7.05297 13.6924 6.83169 13.8067C6.61041 13.921 6.36084 13.986 6.10464 13.996C6.0797 13.998 6.05703 13.998 6.03208 13.998V13.998Z" fill="#333333"/>
</svg>
