<svg width="65" height="37" viewBox="0 0 65 37" fill="none" xmlns="http://www.w3.org/2000/svg">
<path d="M16.45 36.25C13.7833 36.25 11.4167 35.5333 9.35 34.1C7.28333 32.6667 5.66667 30.6333 4.5 28C3.33333 25.3333 2.75 22.1667 2.75 18.5C2.75 14.8333 3.33333 11.6833 4.5 9.05C5.66667 6.38334 7.28333 4.33333 9.35 2.9C11.4167 1.46667 13.7833 0.75 16.45 0.75C19.15 0.75 21.5167 1.46667 23.55 2.9C25.6167 4.33333 27.2333 6.38334 28.4 9.05C29.5667 11.6833 30.15 14.8333 30.15 18.5C30.15 22.1667 29.5667 25.3333 28.4 28C27.2333 30.6333 25.6167 32.6667 23.55 34.1C21.5167 35.5333 19.15 36.25 16.45 36.25ZM16.45 33.9C18.6833 33.9 20.6333 33.3 22.3 32.1C23.9667 30.8667 25.2667 29.1 26.2 26.8C27.1333 24.5 27.6 21.7333 27.6 18.5C27.6 15.2333 27.1333 12.4667 26.2 10.2C25.2667 7.9 23.9667 6.15 22.3 4.95C20.6333 3.71667 18.6833 3.1 16.45 3.1C14.25 3.1 12.3 3.71667 10.6 4.95C8.93333 6.15 7.63333 7.9 6.7 10.2C5.76667 12.4667 5.3 15.2333 5.3 18.5C5.3 21.7333 5.76667 24.5 6.7 26.8C7.63333 29.1 8.93333 30.8667 10.6 32.1C12.3 33.3 14.25 33.9 16.45 33.9Z" fill="#FED100"/>
<path d="M35.0602 26.3V24.45L54.0602 1H56.9102L37.9602 24.45L36.5602 24.05H64.8602V26.3H35.0602ZM55.0102 36V26.3L55.0602 24.05V15.5H57.5102V36H55.0102Z" fill="#FED100"/>
<path d="M14.45 36.25C11.7833 36.25 9.41667 35.5333 7.35 34.1C5.28333 32.6667 3.66667 30.6333 2.5 28C1.33333 25.3333 0.75 22.1667 0.75 18.5C0.75 14.8333 1.33333 11.6833 2.5 9.05C3.66667 6.38334 5.28333 4.33333 7.35 2.9C9.41667 1.46667 11.7833 0.75 14.45 0.75C17.15 0.75 19.5167 1.46667 21.55 2.9C23.6167 4.33333 25.2333 6.38334 26.4 9.05C27.5667 11.6833 28.15 14.8333 28.15 18.5C28.15 22.1667 27.5667 25.3333 26.4 28C25.2333 30.6333 23.6167 32.6667 21.55 34.1C19.5167 35.5333 17.15 36.25 14.45 36.25ZM14.45 33.9C16.6833 33.9 18.6333 33.3 20.3 32.1C21.9667 30.8667 23.2667 29.1 24.2 26.8C25.1333 24.5 25.6 21.7333 25.6 18.5C25.6 15.2333 25.1333 12.4667 24.2 10.2C23.2667 7.9 21.9667 6.15 20.3 4.95C18.6333 3.71667 16.6833 3.1 14.45 3.1C12.25 3.1 10.3 3.71667 8.6 4.95C6.93333 6.15 5.63333 7.9 4.7 10.2C3.76667 12.4667 3.3 15.2333 3.3 18.5C3.3 21.7333 3.76667 24.5 4.7 26.8C5.63333 29.1 6.93333 30.8667 8.6 32.1C10.3 33.3 12.25 33.9 14.45 33.9Z" fill="#333333"/>
<path d="M33.0602 26.3V24.45L52.0602 1H54.9102L35.9602 24.45L34.5602 24.05H62.8602V26.3H33.0602ZM53.0102 36V26.3L53.0602 24.05V15.5H55.5102V36H53.0102Z" fill="#333333"/>
</svg>
