<svg width="58" height="37" viewBox="0 0 58 37" fill="none" xmlns="http://www.w3.org/2000/svg">
<path d="M16.45 36.25C13.7833 36.25 11.4167 35.5333 9.35 34.1C7.28333 32.6667 5.66667 30.6333 4.5 28C3.33333 25.3333 2.75 22.1667 2.75 18.5C2.75 14.8333 3.33333 11.6833 4.5 9.05C5.66667 6.38334 7.28333 4.33333 9.35 2.9C11.4167 1.46667 13.7833 0.75 16.45 0.75C19.15 0.75 21.5167 1.46667 23.55 2.9C25.6167 4.33333 27.2333 6.38334 28.4 9.05C29.5667 11.6833 30.15 14.8333 30.15 18.5C30.15 22.1667 29.5667 25.3333 28.4 28C27.2333 30.6333 25.6167 32.6667 23.55 34.1C21.5167 35.5333 19.15 36.25 16.45 36.25ZM16.45 33.9C18.6833 33.9 20.6333 33.3 22.3 32.1C23.9667 30.8667 25.2667 29.1 26.2 26.8C27.1333 24.5 27.6 21.7333 27.6 18.5C27.6 15.2333 27.1333 12.4667 26.2 10.2C25.2667 7.9 23.9667 6.15 22.3 4.95C20.6333 3.71667 18.6833 3.1 16.45 3.1C14.25 3.1 12.3 3.71667 10.6 4.95C8.93333 6.15 7.63333 7.9 6.7 10.2C5.76667 12.4667 5.3 15.2333 5.3 18.5C5.3 21.7333 5.76667 24.5 6.7 26.8C7.63333 29.1 8.93333 30.8667 10.6 32.1C12.3 33.3 14.25 33.9 16.45 33.9Z" fill="#FED100"/>
<path d="M45.4219 36.25C42.8552 36.25 40.4552 35.8167 38.2219 34.95C36.0219 34.0833 34.3052 32.95 33.0719 31.55L34.3719 29.6C35.4385 30.8333 36.9385 31.8667 38.8719 32.7C40.8385 33.5 43.0219 33.9 45.4219 33.9C48.5552 33.9 50.9385 33.2 52.5719 31.8C54.2385 30.4 55.0719 28.5167 55.0719 26.15C55.0719 23.8167 54.2385 21.95 52.5719 20.55C50.9385 19.1167 48.3719 18.4 44.8719 18.4H42.6719V16.55L53.8219 2.3L54.1719 3.3H34.3719V1H56.3219V2.8L45.2219 17.05L44.1219 16.25H45.2219C49.3885 16.25 52.5052 17.1667 54.5719 19C56.6385 20.8333 57.6719 23.2167 57.6719 26.15C57.6719 28.0833 57.2052 29.8167 56.2719 31.35C55.3719 32.8833 54.0052 34.0833 52.1719 34.95C50.3719 35.8167 48.1219 36.25 45.4219 36.25Z" fill="#FED100"/>
<path d="M14.45 36.25C11.7833 36.25 9.4 35.5333 7.3 34.1C5.23333 32.6333 3.61667 30.5667 2.45 27.9C1.31667 25.2333 0.75 22.1 0.75 18.5C0.75 14.9 1.31667 11.7667 2.45 9.1C3.61667 6.43333 5.23333 4.38333 7.3 2.95C9.4 1.48333 11.7833 0.75 14.45 0.75C17.1167 0.75 19.4833 1.48333 21.55 2.95C23.65 4.38333 25.2667 6.43333 26.4 9.1C27.5667 11.7667 28.15 14.9 28.15 18.5C28.15 22.1 27.5667 25.2333 26.4 27.9C25.2667 30.5667 23.65 32.6333 21.55 34.1C19.4833 35.5333 17.1167 36.25 14.45 36.25ZM14.45 33.9C16.65 33.9 18.5833 33.3 20.25 32.1C21.95 30.8667 23.2667 29.1 24.2 26.8C25.1333 24.4667 25.6 21.7 25.6 18.5C25.6 15.3 25.1333 12.55 24.2 10.25C23.2667 7.91667 21.95 6.15 20.25 4.95C18.5833 3.71667 16.65 3.1 14.45 3.1C12.25 3.1 10.3 3.71667 8.6 4.95C6.93333 6.15 5.63333 7.91667 4.7 10.25C3.76667 12.55 3.3 15.3 3.3 18.5C3.3 21.7 3.76667 24.4667 4.7 26.8C5.63333 29.1 6.93333 30.8667 8.6 32.1C10.3 33.3 12.25 33.9 14.45 33.9Z" fill="#333333"/>
<path d="M43.8219 16.25C47.6885 16.35 50.6219 17.3 52.6219 19.1C54.6552 20.8667 55.6719 23.2167 55.6719 26.15C55.6719 28.1167 55.2052 29.8667 54.2719 31.4C53.3385 32.9 51.9385 34.0833 50.0719 34.95C48.2385 35.8167 46.0219 36.25 43.4219 36.25C40.8885 36.25 38.5052 35.8333 36.2719 35C34.0385 34.1333 32.3052 32.9833 31.0719 31.55L32.3719 29.6C33.5052 30.8667 35.0385 31.9 36.9719 32.7C38.9385 33.5 41.0885 33.9 43.4219 33.9C46.5219 33.9 48.9052 33.2167 50.5719 31.85C52.2385 30.45 53.0719 28.55 53.0719 26.15C53.0719 23.7167 52.2219 21.8167 50.5219 20.45C48.8219 19.0833 46.2719 18.4 42.8719 18.4H40.6719V16.55L51.0219 3.3H32.3719V1H54.3219V2.8L43.8219 16.25Z" fill="#333333"/>
</svg>
