<svg width="59" height="37" viewBox="0 0 59 37" fill="none" xmlns="http://www.w3.org/2000/svg">
<path d="M16.45 36.25C13.7833 36.25 11.4 35.5333 9.3 34.1C7.23333 32.6333 5.61667 30.5667 4.45 27.9C3.31667 25.2333 2.75 22.1 2.75 18.5C2.75 14.9 3.31667 11.7667 4.45 9.1C5.61667 6.43333 7.23333 4.38333 9.3 2.95C11.4 1.48333 13.7833 0.75 16.45 0.75C19.1167 0.75 21.4833 1.48333 23.55 2.95C25.65 4.38333 27.2667 6.43333 28.4 9.1C29.5667 11.7667 30.15 14.9 30.15 18.5C30.15 22.1 29.5667 25.2333 28.4 27.9C27.2667 30.5667 25.65 32.6333 23.55 34.1C21.4833 35.5333 19.1167 36.25 16.45 36.25ZM16.45 33.9C18.65 33.9 20.5833 33.3 22.25 32.1C23.95 30.8667 25.2667 29.1 26.2 26.8C27.1333 24.4667 27.6 21.7 27.6 18.5C27.6 15.3 27.1333 12.55 26.2 10.25C25.2667 7.91667 23.95 6.15 22.25 4.95C20.5833 3.71667 18.65 3.1 16.45 3.1C14.25 3.1 12.3 3.71667 10.6 4.95C8.93333 6.15 7.63333 7.91667 6.7 10.25C5.76667 12.55 5.3 15.3 5.3 18.5C5.3 21.7 5.76667 24.4667 6.7 26.8C7.63333 29.1 8.93333 30.8667 10.6 32.1C12.3 33.3 14.25 33.9 16.45 33.9Z" fill="#FED100"/>
<path d="M58.9613 33.7V36H34.9113V34.2L49.7113 19.5C51.6447 17.5667 52.9447 15.9167 53.6113 14.55C54.3113 13.15 54.6613 11.7167 54.6613 10.25C54.6613 8.01667 53.8947 6.26667 52.3613 5C50.8613 3.73333 48.678 3.1 45.8113 3.1C43.6113 3.1 41.678 3.43333 40.0113 4.1C38.378 4.76667 36.9613 5.78333 35.7613 7.15L33.9613 5.55C35.2947 4.01667 36.978 2.83333 39.0113 2C41.078 1.16667 43.4113 0.75 46.0113 0.75C49.4447 0.75 52.178 1.58333 54.2113 3.25C56.2447 4.91667 57.2613 7.16667 57.2613 10C57.2613 11.8 56.8613 13.5167 56.0613 15.15C55.2613 16.7833 53.7613 18.6833 51.5613 20.85L38.6613 33.7H58.9613Z" fill="#FED100"/>
<path d="M14.45 36.25C11.7833 36.25 9.41667 35.5333 7.35 34.1C5.28333 32.6667 3.66667 30.6333 2.5 28C1.33333 25.3333 0.75 22.1667 0.75 18.5C0.75 14.8333 1.33333 11.6833 2.5 9.05C3.66667 6.38334 5.28333 4.33333 7.35 2.9C9.41667 1.46667 11.7833 0.75 14.45 0.75C17.15 0.75 19.5167 1.46667 21.55 2.9C23.6167 4.33333 25.2333 6.38334 26.4 9.05C27.5667 11.6833 28.15 14.8333 28.15 18.5C28.15 22.1667 27.5667 25.3333 26.4 28C25.2333 30.6333 23.6167 32.6667 21.55 34.1C19.5167 35.5333 17.15 36.25 14.45 36.25ZM14.45 33.9C16.6833 33.9 18.6333 33.3 20.3 32.1C21.9667 30.8667 23.2667 29.1 24.2 26.8C25.1333 24.5 25.6 21.7333 25.6 18.5C25.6 15.2333 25.1333 12.4667 24.2 10.2C23.2667 7.9 21.9667 6.15 20.3 4.95C18.6333 3.71667 16.6833 3.1 14.45 3.1C12.25 3.1 10.3 3.71667 8.6 4.95C6.93333 6.15 5.63333 7.9 4.7 10.2C3.76667 12.4667 3.3 15.2333 3.3 18.5C3.3 21.7333 3.76667 24.5 4.7 26.8C5.63333 29.1 6.93333 30.8667 8.6 32.1C10.3 33.3 12.25 33.9 14.45 33.9Z" fill="#333333"/>
<path d="M32.9602 36V34.2L47.7602 19.5C49.1602 18.1 50.2102 16.8833 50.9102 15.85C51.6102 14.7833 52.0768 13.8 52.3102 12.9C52.5768 12 52.7102 11.1167 52.7102 10.25C52.7102 8.05 51.9602 6.31667 50.4602 5.05C48.9602 3.75 46.7602 3.1 43.8602 3.1C41.6602 3.1 39.7268 3.43333 38.0602 4.1C36.4268 4.76667 35.0102 5.78333 33.8102 7.15L32.0102 5.55C33.3435 4.01667 35.0268 2.83333 37.0602 2C39.1268 1.16667 41.4602 0.75 44.0602 0.75C46.3602 0.75 48.3435 1.13333 50.0102 1.9C51.7102 2.63333 53.0102 3.7 53.9102 5.1C54.8435 6.46667 55.3102 8.1 55.3102 10C55.3102 11.1333 55.1435 12.25 54.8102 13.35C54.5102 14.4167 53.9435 15.55 53.1102 16.75C52.3102 17.95 51.1435 19.3167 49.6102 20.85L35.7102 34.7L34.8602 33.7H57.0102V36H32.9602Z" fill="#333333"/>
</svg>
