<svg width="100" height="100" viewBox="0 0 100 100" fill="none" xmlns="http://www.w3.org/2000/svg">
<circle cx="50" cy="50" r="50" fill="#3D9BE9" fill-opacity="0.8"/>
<path d="M64.9472 52.6482C64.689 52.3895 64.3823 52.1843 64.0446 52.0442C63.707 51.9042 63.345 51.8321 62.9795 51.8321C62.614 51.8321 62.252 51.9042 61.9144 52.0442C61.5767 52.1843 61.27 52.3895 61.0118 52.6482L56.5753 57.0846C54.5185 56.4723 50.6805 55.0807 48.248 52.6482C45.8154 50.2156 44.4238 46.3776 43.8115 44.3208L48.248 39.8844C48.5066 39.6261 48.7119 39.3194 48.8519 38.9817C48.9919 38.6441 49.064 38.2822 49.064 37.9166C49.064 37.5511 48.9919 37.1892 48.8519 36.8515C48.7119 36.5139 48.5066 36.2071 48.248 35.9489L37.1151 24.816C36.8569 24.5574 36.5501 24.3521 36.2125 24.2121C35.8748 24.0721 35.5129 24 35.1474 24C34.7818 24 34.4199 24.0721 34.0823 24.2121C33.7446 24.3521 33.4379 24.5574 33.1796 24.816L25.6316 32.3641C24.5739 33.4217 23.9783 34.8746 24.0006 36.358C24.0646 40.3213 25.1139 54.0871 35.9629 64.9361C46.8118 75.785 60.5776 76.8315 64.5437 76.8983H64.6216C66.0911 76.8983 67.48 76.3194 68.532 75.2673L76.0801 67.7193C76.3388 67.461 76.544 67.1543 76.684 66.8167C76.824 66.479 76.8961 66.1171 76.8961 65.7515C76.8961 65.386 76.824 65.0241 76.684 64.6864C76.544 64.3488 76.3388 64.0421 76.0801 63.7838L64.9472 52.6482ZM64.5938 71.3291C61.1203 71.2706 49.236 70.3383 39.8983 60.9978C30.53 51.6295 29.6227 39.7034 29.567 36.2996L35.1474 30.7192L42.3448 37.9166L38.7461 41.5153C38.4189 41.8422 38.1784 42.2455 38.0462 42.6886C37.9141 43.1318 37.8944 43.6009 37.989 44.0536C38.0558 44.3737 39.6896 51.9635 44.3097 56.5836C48.9298 61.2038 56.5197 62.8375 56.8397 62.9043C57.2921 63.0016 57.7617 62.9835 58.2053 62.8517C58.6489 62.7199 59.0522 62.4786 59.378 62.1501L62.9795 58.5514L70.1769 65.7488L64.5938 71.3291Z" fill="#FDF7F7"/>
</svg>
